<svg width="40" height="40" viewBox="0 0 40 40" fill="none" xmlns="http://www.w3.org/2000/svg">
<rect width="40" height="40" fill="white"/>
<circle cx="20" cy="20" r="19.25" stroke="#091968" stroke-width="1.5"/>
<path d="M14.8897 18.4395C14.7909 18.4408 14.6927 18.4223 14.6011 18.3851C14.5095 18.3479 14.4263 18.2927 14.3564 18.2228C14.2865 18.1529 14.2313 18.0697 14.1941 17.978C14.1569 17.8864 14.1384 17.7883 14.1397 17.6895V11.6895C14.1397 11.4905 14.2187 11.2998 14.3594 11.1591C14.5 11.0185 14.6908 10.9395 14.8897 10.9395C15.0886 10.9395 15.2794 11.0185 15.42 11.1591C15.5607 11.2998 15.6397 11.4905 15.6397 11.6895V17.6895C15.6397 17.8884 15.5607 18.0791 15.42 18.2198C15.2794 18.3604 15.0886 18.4395 14.8897 18.4395V18.4395Z" fill="black"/>
<path d="M17.8701 15.459H11.8701C11.6712 15.459 11.4804 15.38 11.3398 15.2393C11.1991 15.0987 11.1201 14.9079 11.1201 14.709C11.1201 14.5101 11.1991 14.3193 11.3398 14.1787C11.4804 14.038 11.6712 13.959 11.8701 13.959H17.8701C18.069 13.959 18.2598 14.038 18.4004 14.1787C18.5411 14.3193 18.6201 14.5101 18.6201 14.709C18.6201 14.9079 18.5411 15.0987 18.4004 15.2393C18.2598 15.38 18.069 15.459 17.8701 15.459V15.459Z" fill="black"/>
<path d="M23.1797 29C22.9808 29 22.79 28.921 22.6494 28.7803C22.5087 28.6397 22.4297 28.4489 22.4297 28.25V19C22.4297 18.8011 22.5087 18.6103 22.6494 18.4697C22.79 18.329 22.9808 18.25 23.1797 18.25C23.3786 18.25 23.5694 18.329 23.71 18.4697C23.8507 18.6103 23.9297 18.8011 23.9297 19V28.26C23.9245 28.4564 23.8436 28.6431 23.7037 28.7811C23.5639 28.919 23.3761 28.9975 23.1797 29V29Z" fill="black"/>
<path d="M27.7998 24.4004H18.5498C18.3509 24.4004 18.1601 24.3214 18.0195 24.1807C17.8788 24.0401 17.7998 23.8493 17.7998 23.6504C17.7998 23.4515 17.8788 23.2607 18.0195 23.1201C18.1601 22.9794 18.3509 22.9004 18.5498 22.9004H27.7998C27.9987 22.9004 28.1895 22.9794 28.3301 23.1201C28.4708 23.2607 28.5498 23.4515 28.5498 23.6504C28.5498 23.8493 28.4708 24.0401 28.3301 24.1807C28.1895 24.3214 27.9987 24.4004 27.7998 24.4004V24.4004Z" fill="black"/>
</svg>
