<svg width="40" height="40" viewBox="0 0 40 40" fill="none" xmlns="http://www.w3.org/2000/svg">
<rect width="40" height="40" fill="white"/>
<circle cx="20" cy="20" r="19.25" stroke="#091968" stroke-width="1.5"/>
<path d="M14.9998 30.7599C14.006 30.7546 13.0548 30.3561 12.354 29.6516C11.6532 28.947 11.2598 27.9936 11.2598 26.9999V18.9999C11.2564 18.0136 11.6407 17.0655 12.3298 16.3599C12.679 16.0078 13.0952 15.7291 13.5537 15.5402C14.0122 15.3513 14.5039 15.256 14.9998 15.2599H24.9998C25.9901 15.2651 26.9383 15.6609 27.6386 16.3611C28.3388 17.0614 28.7345 18.0096 28.7398 18.9999V26.9999C28.7409 27.9955 28.3493 28.9514 27.6498 29.6599C27.3004 30.0041 26.8864 30.2759 26.4316 30.4595C25.9768 30.6431 25.4902 30.735 24.9998 30.7299H14.9998V30.7599ZM24.9998 16.7599H14.9998C14.7055 16.7576 14.4138 16.8148 14.1423 16.9283C13.8707 17.0417 13.625 17.2089 13.4198 17.4199C13.207 17.6248 13.0373 17.87 12.9205 18.1413C12.8038 18.4126 12.7423 18.7045 12.7398 18.9999V26.9999C12.7385 27.297 12.796 27.5915 12.9091 27.8663C13.0222 28.1411 13.1887 28.3908 13.3988 28.6009C13.6089 28.811 13.8586 28.9774 14.1334 29.0905C14.4082 29.2036 14.7026 29.2612 14.9998 29.2599V29.2599H24.9998C25.2969 29.2612 25.5914 29.2036 25.8662 29.0905C26.141 28.9774 26.3907 28.811 26.6008 28.6009C26.8109 28.3908 26.9773 28.1411 27.0905 27.8663C27.2036 27.5915 27.2611 27.297 27.2598 26.9999V18.9999C27.2624 18.7019 27.2059 18.4063 27.0934 18.1304C26.9808 17.8544 26.8146 17.6036 26.6044 17.3924C26.3941 17.1812 26.144 17.0139 25.8685 16.9001C25.5931 16.7864 25.2978 16.7285 24.9998 16.7299V16.7599Z" fill="black"/>
<path d="M15.9995 16.7502C15.9017 16.752 15.8044 16.7344 15.7135 16.6983C15.6225 16.6623 15.5396 16.6086 15.4695 16.5402C15.3959 16.4705 15.3368 16.3869 15.2956 16.2942C15.2544 16.2015 15.232 16.1016 15.2295 16.0002V14.0002C15.2295 13.3743 15.3529 12.7545 15.5928 12.1764C15.8326 11.5982 16.1841 11.073 16.6272 10.6309C17.0703 10.1887 17.5962 9.83833 18.1748 9.5997C18.7535 9.36108 19.3736 9.23893 19.9995 9.24024V9.24024C21.2559 9.25078 22.4574 9.75661 23.343 10.6479C24.2287 11.5391 24.7269 12.7438 24.7295 14.0002V16.0002C24.7308 16.0991 24.7124 16.1972 24.6751 16.2888C24.6379 16.3804 24.5827 16.4637 24.5128 16.5336C24.4429 16.6035 24.3597 16.6587 24.2681 16.6959C24.1765 16.7331 24.0784 16.7516 23.9795 16.7502H15.9795H15.9995ZM19.9995 10.7502C19.5714 10.7489 19.1472 10.832 18.7512 10.9946C18.3552 11.1572 17.995 11.3962 17.6914 11.698C17.3877 11.9998 17.1465 12.3584 16.9815 12.7535C16.8164 13.1485 16.7308 13.5721 16.7295 14.0002V15.2502H23.2295V14.0002C23.2295 13.1408 22.8902 12.3161 22.2853 11.7056C21.6804 11.0951 20.8589 10.7482 19.9995 10.7402V10.7502Z" fill="black"/>
<path d="M20 25.2402C19.2724 25.2402 18.5744 24.9519 18.059 24.4383C17.5435 23.9248 17.2526 23.2278 17.25 22.5002C17.25 21.77 17.5394 21.0695 18.0548 20.5521C18.5703 20.0348 19.2697 19.7429 20 19.7402C20.7293 19.7402 21.4288 20.03 21.9445 20.5457C22.4603 21.0614 22.75 21.7609 22.75 22.4902V22.4902C22.75 23.2196 22.4603 23.9191 21.9445 24.4348C21.4288 24.9505 20.7293 25.2402 20 25.2402V25.2402ZM20 21.2402C19.6684 21.2454 19.352 21.3802 19.1184 21.6156C18.8848 21.8511 18.7526 22.1686 18.75 22.5002C18.75 22.6639 18.7824 22.826 18.8453 22.9771C18.9083 23.1282 19.0005 23.2653 19.1167 23.3806C19.2329 23.4959 19.3708 23.587 19.5224 23.6487C19.674 23.7105 19.8363 23.7416 20 23.7402V23.7402C20.1632 23.7416 20.3251 23.7105 20.4762 23.6487C20.6273 23.5869 20.7645 23.4956 20.88 23.3802C21.1164 23.1443 21.2495 22.8242 21.25 22.4902V22.4902C21.25 22.1587 21.1183 21.8408 20.8839 21.6064C20.6495 21.3719 20.3315 21.2402 20 21.2402V21.2402Z" fill="black"/>
<path d="M20 27.2402C19.8028 27.2403 19.6135 27.1626 19.4732 27.0241C19.3328 26.8856 19.2526 26.6974 19.25 26.5002V24.5002C19.25 24.3004 19.3287 24.1086 19.4691 23.9663C19.6094 23.8241 19.8002 23.7429 20 23.7402V23.7402C20.0985 23.7402 20.196 23.7596 20.287 23.7973C20.378 23.835 20.4607 23.8903 20.5303 23.9599C20.6 24.0295 20.6552 24.1122 20.6929 24.2032C20.7306 24.2942 20.75 24.3917 20.75 24.4902V26.4902C20.75 26.6891 20.671 26.8799 20.5303 27.0206C20.3897 27.1612 20.1989 27.2402 20 27.2402V27.2402Z" fill="black"/>
</svg>
