<svg width="40" height="40" viewBox="0 0 40 40" fill="none" xmlns="http://www.w3.org/2000/svg">
<rect width="40" height="40" fill="white"/>
<circle cx="20" cy="20" r="19.25" stroke="#091968" stroke-width="1.5"/>
<path d="M21.71 24.3203C21.5616 24.3203 21.4166 24.2763 21.2933 24.1939C21.1699 24.1115 21.0738 23.9944 21.0171 23.8573C20.9603 23.7203 20.9454 23.5695 20.9744 23.424C21.0033 23.2785 21.0747 23.1449 21.1796 23.04C21.2845 22.9351 21.4182 22.8637 21.5636 22.8347C21.7091 22.8058 21.8599 22.8206 21.997 22.8774C22.134 22.9342 22.2512 23.0303 22.3336 23.1536C22.416 23.277 22.46 23.422 22.46 23.5703C22.4574 23.7684 22.3775 23.9577 22.2374 24.0978C22.0973 24.2379 21.9081 24.3177 21.71 24.3203V24.3203Z" fill="black"/>
<path d="M21.4996 21.8311C21.3007 21.8311 21.1099 21.7521 20.9693 21.6114C20.8286 21.4708 20.7496 21.28 20.7496 21.0811C20.7496 20.8822 20.8286 20.6914 20.9693 20.5508C21.1099 20.4101 21.3007 20.3311 21.4996 20.3311C21.9603 20.297 22.391 20.0899 22.7054 19.7514C23.0197 19.4129 23.1944 18.9681 23.1944 18.5061C23.1944 18.0442 23.0197 17.5993 22.7054 17.2608C22.391 16.9223 21.9603 16.7152 21.4996 16.6811C20.8144 16.596 20.1222 16.7709 19.5596 17.1711C19.3449 17.3938 19.1804 17.6598 19.0769 17.9512C18.9734 18.2427 18.9334 18.5529 18.9596 18.8611C18.9596 19.06 18.8806 19.2508 18.74 19.3914C18.5993 19.5321 18.4085 19.6111 18.2096 19.6111C18.0107 19.6111 17.8199 19.5321 17.6793 19.3914C17.5386 19.2508 17.4596 19.06 17.4596 18.8611C17.4211 18.3319 17.5008 17.8008 17.6927 17.3062C17.8847 16.8116 18.1842 16.3658 18.5696 16.0011C19.4216 15.3388 20.4962 15.0308 21.5696 15.1411C21.9999 15.1463 22.4249 15.2364 22.8203 15.4062C23.2157 15.576 23.5737 15.8222 23.8738 16.1306C24.1739 16.4391 24.4101 16.8037 24.569 17.2036C24.7279 17.6035 24.8062 18.0308 24.7996 18.4611C24.8049 18.8993 24.7237 19.3341 24.5606 19.7408C24.3974 20.1475 24.1557 20.518 23.8491 20.8311C23.5425 21.1441 23.1772 21.3936 22.774 21.5652C22.3709 21.7368 21.9378 21.8272 21.4996 21.8311V21.8311Z" fill="black"/>
<path d="M21.0798 28.4906C19.6858 28.4807 18.3144 28.1378 17.0798 27.4906C16.9876 27.4482 16.905 27.3875 16.837 27.3122C16.769 27.2369 16.7169 27.1486 16.684 27.0527C16.6511 26.9567 16.638 26.855 16.6455 26.7538C16.653 26.6526 16.6809 26.554 16.7277 26.464C16.7744 26.3739 16.8389 26.2942 16.9173 26.2298C16.9957 26.1654 17.0864 26.1176 17.1838 26.0892C17.2812 26.0609 17.3834 26.0526 17.4841 26.0649C17.5848 26.0771 17.682 26.1097 17.7698 26.1606C19.2109 26.9008 20.8564 27.1434 22.4498 26.8506C23.7239 26.5977 24.9066 26.0072 25.8743 25.1408C26.842 24.2743 27.5592 23.1638 27.9508 21.9254C28.3424 20.6869 28.3942 19.366 28.1006 18.1007C27.807 16.8354 27.1789 15.6722 26.2819 14.7327C25.3849 13.7933 24.252 13.112 23.0016 12.7603C21.7512 12.4085 20.4293 12.3991 19.174 12.7331C17.9188 13.0671 16.7763 13.7322 15.8661 14.6588C14.9559 15.5855 14.3113 16.7396 13.9998 18.0006C13.5551 19.8714 13.8602 21.8419 14.8498 23.4906C14.9438 23.6577 14.9703 23.8544 14.9238 24.0404C14.8773 24.2264 14.7614 24.3875 14.5998 24.4906C14.4327 24.5846 14.236 24.6111 14.05 24.5646C13.8641 24.5181 13.703 24.4022 13.5998 24.2406C12.8695 23.0331 12.4428 21.6665 12.3563 20.2579C12.2698 18.8493 12.526 17.4408 13.1031 16.1529C13.6802 14.8651 14.5608 13.7363 15.6697 12.8634C16.7785 11.9904 18.0825 11.3993 19.4698 11.1406C21.752 10.715 24.1098 11.2133 26.0245 12.5261C27.9393 13.8388 29.2541 15.8584 29.6798 18.1406C30.1055 20.4228 29.6071 22.7806 28.2944 24.6954C26.9816 26.6101 24.962 27.925 22.6798 28.3506C22.1513 28.4419 21.6161 28.4887 21.0798 28.4906Z" fill="black"/>
<path d="M13.33 29.0009C13.0903 29.0067 12.853 28.9516 12.6403 28.8409C12.4276 28.7302 12.2463 28.5674 12.1136 28.3677C11.9808 28.168 11.9007 27.9379 11.8809 27.6989C11.861 27.4599 11.902 27.2198 12 27.0009L13.53 23.5809C13.6136 23.4035 13.7633 23.2658 13.9472 23.1974C14.1311 23.129 14.3344 23.1354 14.5136 23.2152C14.6929 23.295 14.8337 23.4419 14.9059 23.6243C14.9781 23.8067 14.976 24.0101 14.9 24.1909L13.48 27.4509L17.15 26.1409C17.2444 26.0995 17.3463 26.078 17.4494 26.0777C17.5525 26.0774 17.6545 26.0984 17.7492 26.1393C17.8438 26.1803 17.9289 26.2403 17.9993 26.3156C18.0697 26.3909 18.1238 26.4799 18.1583 26.5771C18.1927 26.6742 18.2068 26.7774 18.1996 26.8803C18.1924 26.9831 18.164 27.0833 18.1163 27.1747C18.0686 27.2661 18.0026 27.3467 17.9224 27.4114C17.8421 27.4762 17.7494 27.5236 17.65 27.5509L13.8 28.9209C13.6496 28.9761 13.4903 29.0033 13.33 29.0009V29.0009Z" fill="black"/>
</svg>
