<svg width="40" height="40" viewBox="0 0 40 40" fill="none" xmlns="http://www.w3.org/2000/svg">
<rect width="40" height="40" fill="white"/>
<path d="M20 19.75C18.8628 19.75 17.7511 19.4128 16.8055 18.781C15.8599 18.1491 15.1229 17.2511 14.6877 16.2004C14.2525 15.1498 14.1386 13.9936 14.3605 12.8782C14.5824 11.7628 15.13 10.7383 15.9341 9.93414C16.7383 9.12999 17.7628 8.58235 18.8782 8.36049C19.9936 8.13862 21.1498 8.25249 22.2004 8.6877C23.2511 9.1229 24.1491 9.85989 24.781 10.8055C25.4128 11.7511 25.75 12.8628 25.75 14C25.7474 15.5242 25.1407 16.9852 24.0629 18.0629C22.9852 19.1407 21.5242 19.7474 20 19.75V19.75ZM20 9.75C19.1594 9.75 18.3377 9.99926 17.6388 10.4663C16.9399 10.9333 16.3952 11.597 16.0735 12.3736C15.7518 13.1502 15.6677 14.0047 15.8317 14.8291C15.9957 15.6536 16.4004 16.4108 16.9948 17.0052C17.5892 17.5996 18.3464 18.0044 19.1709 18.1683C19.9953 18.3323 20.8498 18.2482 21.6264 17.9265C22.403 17.6048 23.0668 17.0601 23.5337 16.3612C24.0007 15.6623 24.25 14.8406 24.25 14C24.2474 12.8736 23.7987 11.7942 23.0023 10.9977C22.2058 10.2013 21.1264 9.75264 20 9.75V9.75Z" fill="black"/>
<path d="M29 27.75C28.8019 27.7474 28.6126 27.6676 28.4725 27.5275C28.3324 27.3874 28.2526 27.1981 28.25 27C28.2474 25.078 27.4827 23.2355 26.1236 21.8764C24.7645 20.5173 22.922 19.7526 21 19.75H19C17.078 19.7526 15.2355 20.5173 13.8764 21.8764C12.5173 23.2355 11.7526 25.078 11.75 27C11.75 27.1989 11.671 27.3897 11.5303 27.5303C11.3897 27.671 11.1989 27.75 11 27.75C10.8011 27.75 10.6103 27.671 10.4697 27.5303C10.329 27.3897 10.25 27.1989 10.25 27C10.2526 24.6802 11.1754 22.4561 12.8157 20.8157C14.4561 19.1754 16.6802 18.2526 19 18.25H21C23.3198 18.2526 25.5439 19.1754 27.1843 20.8157C28.8246 22.4561 29.7474 24.6802 29.75 27C29.7474 27.1981 29.6676 27.3874 29.5275 27.5275C29.3874 27.6676 29.1981 27.7474 29 27.75Z" fill="black"/>
<circle cx="20" cy="20" r="19.25" stroke="#091968" stroke-width="1.5"/>
</svg>
