<svg width="40" height="40" viewBox="0 0 40 40" fill="none" xmlns="http://www.w3.org/2000/svg">
<rect width="40" height="40" fill="white"/>
<circle cx="20" cy="20" r="19.25" stroke="#E35454" stroke-width="1.5"/>
<path d="M20.9999 28.7391C20.9037 28.7532 20.806 28.7532 20.7099 28.7391C20.5722 28.6814 20.455 28.584 20.373 28.4593C20.2911 28.3346 20.2482 28.1883 20.2499 28.0391V24.6991H10.9999C10.8117 24.6947 10.6319 24.6207 10.4952 24.4914C10.3585 24.3621 10.2747 24.1867 10.2599 23.9991V15.9991C10.2545 15.8976 10.2695 15.7961 10.304 15.7006C10.3385 15.605 10.3919 15.5174 10.4609 15.4428C10.5299 15.3682 10.6131 15.3082 10.7057 15.2664C10.7983 15.2245 10.8983 15.2016 10.9999 15.1991H20.2499V12.0091C20.2497 11.8601 20.2944 11.7146 20.3783 11.5915C20.4621 11.4684 20.5812 11.3734 20.7199 11.3191C20.855 11.2595 21.0052 11.2428 21.1501 11.2715C21.295 11.3001 21.4276 11.3726 21.5299 11.4791L29.5299 19.4791C29.6703 19.6197 29.7492 19.8104 29.7492 20.0091C29.7492 20.2079 29.6703 20.3985 29.5299 20.5391L21.5299 28.5391C21.46 28.607 21.3768 28.6598 21.2857 28.6942C21.1945 28.7287 21.0972 28.7439 20.9999 28.7391V28.7391ZM11.7599 23.1991H20.9999C21.198 23.2017 21.3872 23.2815 21.5273 23.4216C21.6674 23.5617 21.7473 23.751 21.7499 23.9491V26.1791L27.9299 19.9991L21.7499 13.8291V15.9991C21.7476 16.1975 21.6687 16.3874 21.5299 16.5291C21.3815 16.6517 21.1918 16.7125 20.9999 16.6991H11.7599V23.1991Z" fill="#E35454"/>
</svg>
