<svg width="378" height="226" viewBox="0 0 378 226" fill="none" xmlns="http://www.w3.org/2000/svg">
<path d="M247 117H378L363 226H247V117Z" fill="#8986E6"/>
<path d="M348 96H247V117H378L348 96Z" fill="#9C9AEA"/>
<g filter="url(#filter0_d_410_27350)">
<path d="M305.911 176.509H309.972C311.272 176.509 312.345 176.289 313.188 175.85C314.032 175.393 314.656 174.76 315.061 173.951C315.482 173.125 315.693 172.167 315.693 171.077C315.693 170.093 315.5 169.223 315.113 168.467C314.744 167.693 314.173 167.096 313.399 166.674C312.626 166.234 311.65 166.015 310.473 166.015C309.541 166.015 308.68 166.199 307.889 166.568C307.098 166.938 306.465 167.456 305.99 168.124C305.516 168.792 305.278 169.601 305.278 170.55H297.658C297.658 168.44 298.221 166.604 299.346 165.039C300.488 163.475 302.018 162.253 303.934 161.374C305.85 160.495 307.959 160.056 310.262 160.056C312.863 160.056 315.14 160.478 317.091 161.321C319.042 162.147 320.562 163.369 321.652 164.986C322.742 166.604 323.287 168.607 323.287 170.998C323.287 172.211 323.006 173.389 322.443 174.531C321.881 175.656 321.072 176.676 320.018 177.59C318.98 178.486 317.715 179.207 316.221 179.752C314.727 180.279 313.048 180.543 311.185 180.543H305.911V176.509ZM305.911 182.283V178.354H311.185C313.276 178.354 315.113 178.592 316.695 179.066C318.277 179.541 319.604 180.227 320.677 181.123C321.749 182.002 322.558 183.048 323.103 184.261C323.647 185.456 323.92 186.783 323.92 188.242C323.92 190.035 323.577 191.635 322.892 193.041C322.206 194.43 321.239 195.607 319.991 196.574C318.761 197.541 317.319 198.279 315.667 198.789C314.015 199.281 312.213 199.527 310.262 199.527C308.645 199.527 307.054 199.308 305.489 198.868C303.942 198.411 302.536 197.734 301.271 196.838C300.022 195.924 299.021 194.781 298.265 193.41C297.526 192.021 297.157 190.378 297.157 188.479H304.777C304.777 189.464 305.023 190.343 305.516 191.116C306.008 191.89 306.685 192.496 307.546 192.936C308.425 193.375 309.4 193.595 310.473 193.595C311.686 193.595 312.723 193.375 313.584 192.936C314.463 192.479 315.131 191.846 315.588 191.037C316.062 190.211 316.3 189.253 316.3 188.163C316.3 186.757 316.045 185.632 315.535 184.788C315.025 183.927 314.296 183.294 313.347 182.89C312.397 182.485 311.272 182.283 309.972 182.283H305.911Z" fill="#202020"/>
</g>
<path d="M0 87H131V226H15L0 87Z" fill="#B0AFEE"/>
<path d="M30 66H131V87H0L30 66Z" fill="#C4C3F2"/>
<g filter="url(#filter1_d_410_27350)">
<path d="M81.875 171.969V179H50.75V173L65.4688 157.219C66.9479 155.573 68.1146 154.125 68.9688 152.875C69.8229 151.604 70.4375 150.469 70.8125 149.469C71.2083 148.448 71.4062 147.479 71.4062 146.562C71.4062 145.188 71.1771 144.01 70.7188 143.031C70.2604 142.031 69.5833 141.26 68.6875 140.719C67.8125 140.177 66.7292 139.906 65.4375 139.906C64.0625 139.906 62.875 140.24 61.875 140.906C60.8958 141.573 60.1458 142.5 59.625 143.688C59.125 144.875 58.875 146.219 58.875 147.719H49.8438C49.8438 145.01 50.4896 142.531 51.7812 140.281C53.0729 138.01 54.8958 136.208 57.25 134.875C59.6042 133.521 62.3958 132.844 65.625 132.844C68.8125 132.844 71.5 133.365 73.6875 134.406C75.8958 135.427 77.5625 136.906 78.6875 138.844C79.8333 140.76 80.4062 143.052 80.4062 145.719C80.4062 147.219 80.1667 148.688 79.6875 150.125C79.2083 151.542 78.5208 152.958 77.625 154.375C76.75 155.771 75.6875 157.188 74.4375 158.625C73.1875 160.062 71.8021 161.552 70.2812 163.094L62.375 171.969H81.875Z" fill="#202020"/>
</g>
<path d="M141 0H237L262 21H116L141 0Z" fill="#EBEBFB"/>
<path d="M116 21H262L247 226H131L116 21Z" fill="#D8D7F7"/>
<g filter="url(#filter2_d_410_27350)">
<path d="M197.906 85.0859V142H185.68V98.9922L172.477 103.016V93.5625L196.695 85.0859H197.906Z" fill="#202020"/>
</g>
<defs>
<filter id="filter0_d_410_27350" x="293.156" y="152.055" width="34.7656" height="47.4727" filterUnits="userSpaceOnUse" color-interpolation-filters="sRGB">
<feFlood flood-opacity="0" result="BackgroundImageFix"/>
<feColorMatrix in="SourceAlpha" type="matrix" values="0 0 0 0 0 0 0 0 0 0 0 0 0 0 0 0 0 0 127 0" result="hardAlpha"/>
<feOffset dy="-4"/>
<feGaussianBlur stdDeviation="2"/>
<feComposite in2="hardAlpha" operator="out"/>
<feColorMatrix type="matrix" values="0 0 0 0 0 0 0 0 0 0 0 0 0 0 0 0 0 0 0.25 0"/>
<feBlend mode="normal" in2="BackgroundImageFix" result="effect1_dropShadow_410_27350"/>
<feBlend mode="normal" in="SourceGraphic" in2="effect1_dropShadow_410_27350" result="shape"/>
</filter>
<filter id="filter1_d_410_27350" x="45.8438" y="124.844" width="40.0312" height="54.1562" filterUnits="userSpaceOnUse" color-interpolation-filters="sRGB">
<feFlood flood-opacity="0" result="BackgroundImageFix"/>
<feColorMatrix in="SourceAlpha" type="matrix" values="0 0 0 0 0 0 0 0 0 0 0 0 0 0 0 0 0 0 127 0" result="hardAlpha"/>
<feOffset dy="-4"/>
<feGaussianBlur stdDeviation="2"/>
<feComposite in2="hardAlpha" operator="out"/>
<feColorMatrix type="matrix" values="0 0 0 0 0 0 0 0 0 0 0 0 0 0 0 0 0 0 0.25 0"/>
<feBlend mode="normal" in2="BackgroundImageFix" result="effect1_dropShadow_410_27350"/>
<feBlend mode="normal" in="SourceGraphic" in2="effect1_dropShadow_410_27350" result="shape"/>
</filter>
<filter id="filter2_d_410_27350" x="168.477" y="77.0859" width="33.4297" height="64.9141" filterUnits="userSpaceOnUse" color-interpolation-filters="sRGB">
<feFlood flood-opacity="0" result="BackgroundImageFix"/>
<feColorMatrix in="SourceAlpha" type="matrix" values="0 0 0 0 0 0 0 0 0 0 0 0 0 0 0 0 0 0 127 0" result="hardAlpha"/>
<feOffset dy="-4"/>
<feGaussianBlur stdDeviation="2"/>
<feComposite in2="hardAlpha" operator="out"/>
<feColorMatrix type="matrix" values="0 0 0 0 0 0 0 0 0 0 0 0 0 0 0 0 0 0 0.25 0"/>
<feBlend mode="normal" in2="BackgroundImageFix" result="effect1_dropShadow_410_27350"/>
<feBlend mode="normal" in="SourceGraphic" in2="effect1_dropShadow_410_27350" result="shape"/>
</filter>
</defs>
</svg>
